<?xml version="1.0" standalone="no"?>
<!DOCTYPE svg PUBLIC "-//W3C//DTD SVG 20010904//EN"
 "http://www.w3.org/TR/2001/REC-SVG-20010904/DTD/svg10.dtd">
<svg version="1.0" xmlns="http://www.w3.org/2000/svg"
 width="256.000000pt" height="256.000000pt" viewBox="0 0 256.000000 256.000000"
 preserveAspectRatio="xMidYMid meet">
<metadata>
Created by potrace 1.14, written by Peter Selinger 2001-2017
</metadata>
<g transform="translate(0.000000,256.000000) scale(0.100000,-0.100000)"
fill="#000000" stroke="none">
<path d="M1032 2550 c-56 -12 -95 -36 -117 -72 -9 -16 -50 -125 -90 -241 -80
-231 -300 -865 -372 -1072 -25 -71 -65 -186 -88 -255 -24 -69 -78 -224 -120
-345 -118 -339 -126 -364 -132 -414 -7 -59 14 -103 60 -128 27 -15 60 -18 212
-18 168 0 183 2 227 23 55 27 59 35 128 247 28 88 61 189 73 225 l22 65 107 1
c106 1 138 10 138 39 0 8 20 12 60 12 52 0 62 -3 75 -23 9 -14 25 -24 40 -24
23 0 55 23 55 40 0 4 27 8 60 7 46 -1 61 -5 65 -18 9 -26 45 -35 147 -33 l98
1 81 -246 c52 -161 88 -254 103 -269 38 -39 97 -49 283 -50 95 0 189 4 208 9
59 17 87 48 92 105 5 54 3 61 -402 1219 -42 121 -144 414 -226 650 -82 237
-157 447 -166 467 -19 45 -47 71 -93 88 -42 15 -462 23 -528 10z m361 -1498
c-72 -1 -195 -1 -272 0 l-139 3 24 70 c14 39 27 77 29 85 2 8 46 146 99 306
53 160 96 293 96 297 0 3 5 18 11 34 11 26 23 -6 148 -382 l136 -410 -132 -3z"/>
</g>
</svg>
